# xmcd
#
# Track frame offsets:
#	150
#	12007
#	23192
#	34960
#	48980
#	62112
#	76485
#	86020
#	93895
#	105835
#	118995
#	131640
#	141455
#	152567
#	163477
#	173925
#
# Disc length: 2457 seconds
#
# Revision: 2
# Processed by: cddbd v1.4PL0 Copyright (c) Steve Scherf et al.
# Submitted via: EasyCDDAExtractor 5.1.0
#
DISCID=d4099710
DTITLE=Jim Reeves - 16 Top Tracks
DYEAR=1988
DGENRE=Compilation
TTITLE0=Have You Ever Been Lonely?(Have You Ever Been Blue?)
TTITLE1=Just Walking In The Rain
TTITLE2=Welcome To My World
TTITLE3=I Fall To Pieces
TTITLE4=(There'll Be Bluebirds Over)The White Cliff's Of Dover
TTITLE5=Guilty
TTITLE6=The Hawaiian Wedding Song
TTITLE7=You Are My Love
TTITLE8=In The Misty Moonlight
TTITLE9=You'll Never Know
TTITLE10=I Can't Stop Loving You
TTITLE11=Somewhere Along The Line
TTITLE12=Someday(You'll Want Me To Want You)
TTITLE13=How's The World Treating You
TTITLE14=Am I Losing You
TTITLE15=Scarlet Ribbons(For Her Hair)
EXTD=
EXTT0=
EXTT1=
EXTT2=
EXTT3=
EXTT4=
EXTT5=
EXTT6=
EXTT7=
EXTT8=
EXTT9=
EXTT10=
EXTT11=
EXTT12=
EXTT13=
EXTT14=
EXTT15=
PLAYORDER=
